<svg width="48" height="42" viewBox="0 0 48 42" fill="none" xmlns="http://www.w3.org/2000/svg">
<g clip-path="url(#clip0_44_9)">
<path d="M16.3195 41.9999C11.5869 41.9999 6.87457 41.9999 2.14189 41.9999C0.571132 41.9999 0.0407448 41.5364 0.0203453 39.9846C-0.0204537 37.808 -0.0204537 35.6113 0.0203453 33.4347C0.0407448 31.8828 0.571132 31.2984 2.14189 31.4596C4.81423 31.7418 6.99697 31.0364 8.91452 29.1218C11.2197 26.8243 14.096 26.0383 17.3803 26.1592C21.2562 26.3003 25.1321 26.1995 29.008 26.1995C30.8644 26.1995 32.0271 27.1871 32.0475 28.7187C32.0679 30.4318 30.9256 31.4798 29.0284 31.4999C27.1313 31.5201 25.2137 31.4999 23.3166 31.4999C22.1946 31.4999 21.5418 31.9635 21.501 32.7293C21.4806 33.5153 22.1742 34.0393 23.3166 34.0393C26.1113 34.0594 28.8856 34.0796 31.6804 34.0191C32.2515 33.999 32.8839 33.7773 33.3531 33.4548C36.413 31.2984 39.4322 29.0614 42.4921 26.8646C43.6549 26.0383 44.9604 25.8771 46.2252 26.5825C47.5308 27.308 48.2039 28.4971 47.898 29.9683C47.7348 30.7543 47.2452 31.6612 46.6128 32.1247C42.9205 34.926 39.167 37.6468 35.4135 40.3675C33.9039 41.4558 32.1699 41.9999 30.2728 41.9798C25.6217 41.9798 20.9706 41.9999 16.3195 41.9999Z" fill="white"/>
<path d="M22.7454 2.38991e-05C23.5206 2.38991e-05 24.3162 2.38991e-05 25.0914 2.38991e-05C26.3357 0.0201775 26.7437 0.423249 26.7641 1.63246C26.7845 2.90214 26.7845 4.19196 26.7641 5.46164C26.7437 6.18716 27.0089 6.48947 27.7637 6.46931C29.0285 6.42901 30.2728 6.44916 31.5376 6.46931C32.9248 6.48947 33.4348 7.01346 33.4552 8.3839C33.4756 9.83496 33.4756 11.2659 33.4552 12.7169C33.4348 14.0067 32.884 14.5307 31.558 14.571C30.436 14.5912 29.3141 14.571 28.1921 14.571C26.7641 14.571 26.7641 14.571 26.7437 15.9415C26.7437 17.0902 26.7641 18.2188 26.7437 19.3676C26.7233 20.6171 26.2949 21.0202 24.9894 21.0202C23.5002 21.0403 21.9907 21.0202 20.5015 21.0202C19.1755 21.0202 18.6451 20.5365 18.5839 19.2265C18.5227 18.0173 18.5431 16.8081 18.5635 15.5989C18.5839 14.8129 18.2575 14.5307 17.4824 14.5509C16.2992 14.5912 15.0956 14.571 13.9125 14.5509C12.5457 14.5106 12.0153 13.9866 12.0153 12.6161C11.9949 11.1651 11.9949 9.73419 12.0153 8.28313C12.0357 7.03361 12.5457 6.48947 13.8105 6.44916C14.9732 6.40885 16.1156 6.36855 17.2784 6.44916C18.3391 6.50962 18.6655 6.0864 18.6043 5.09887C18.5431 4.03073 18.5635 2.94244 18.6043 1.8743C18.6655 0.423249 19.1551 -0.0201297 20.6035 -0.0402832C21.3175 2.38991e-05 22.0314 2.38991e-05 22.7454 2.38991e-05Z" fill="white"/>
</g>
<defs>
<clipPath id="clip0_44_9">
<rect width="48" height="42" fill="white"/>
</clipPath>
</defs>
</svg>
